#!OML:ASF X:\für Bonn\!DataBase\2005_08_10_Bjorn_Final\c3d\bjorn.ASF
:FULLY-SPECIFIED
:DEGREES
31
root -11.0001 18.9864 -1.41042 1510.67 -86.3888 -73.041
lowerback -3.44448 4.61695 5.59325
upperback 7.99554 5.71096 -1.55203
thorax 11.271 3.2489 -4.02647
lowerneck -2.78289 -5.25051 4.63013
upperneck 0.887742 -7.15398 -0.75107
head 0.538803 -3.56906 -1.07458
rclavicle -1.59028e-015 5.56597e-015
rhumerus -9.13055 5.58975 -90.0449
rradius 50.1038
rwrist -14.3808
rhand -10.5953 6.20677
rfingers 7.12502
rthumb 15.4103 -23.1988
lclavicle -1.59028e-015 5.56597e-015
lhumerus -37.7484 3.13397 86.2311
lradius 18.1386
lwrist -34.8429
lhand -10.4307 -5.34246
lfingers 7.12502
lthumb 15.5688 24.0509
rfemur 11.5233 -5.50672 19.1873
rtibia 16.7797
rfoot -12.6182 22.5435
rtoes 4.10207
lfemur -26.5662 7.24864 -14.0766
ltibia 22.4688
lfoot -2.00708 -7.68571
ltoes -9.55781
32
root -11.16 18.9608 -1.38896 1512.7 -86.297 -75.1094
lowerback -3.53957 4.68808 5.62744
upperback 8.0122 5.80149 -1.57548
thorax 11.3676 3.29866 -4.04867
lowerneck -2.7667 -5.32387 4.54729
upperneck 0.794702 -7.24948 -0.643094
head 0.5113 -3.61766 -1.0252
rclavicle -3.77691e-015 6.36111e-015
rhumerus -8.79893 5.88555 -89.9694
rradius 51.4809
rwrist -14.9063
rhand -10.5182 6.30889
rfingers 7.12502
rthumb 15.4845 -23.091
lclavicle -3.77691e-015 6.36111e-015
lhumerus -37.6623 3.05528 86.2433
lradius 18.1956
lwrist -34.4184
lhand -10.5522 -5.23504
lfingers 7.12502
lthumb 15.4518 24.1674
rfemur 12.3633 -5.37709 19.2087
rtibia 16.2557
rfoot -12.3801 22.6195
rtoes 4.07087
lfemur -26.7106 7.16687 -13.9089
ltibia 21.7312
lfoot -2.03112 -7.53683
ltoes -9.55033
33
root -11.3192 18.9345 -1.36623 1514.53 -86.2221 -76.9869
lowerback -3.59855 4.74145 5.60894
upperback 8.02578 5.87251 -1.57983
thorax 11.4267 3.3326 -4.02684
lowerneck -2.72942 -5.38764 4.44081
upperneck 0.697857 -7.32959 -0.569983
head 0.4793 -3.65896 -0.981917
rclavicle -6.04305e-014 5.56597e-015
rhumerus -8.5212 6.21287 -89.8432
rradius 52.9035
rwrist -15.3673
rhand -10.3252 6.30068
rfingers 7.12502
rthumb 15.6705 -23.0847
lclavicle -6.04305e-014 5.56597e-015
lhumerus -37.551 3.25529 86.1567
lradius 18.16
lwrist -34.1922
lhand -10.6742 -5.22651
lfingers 7.12502
lthumb 15.3343 24.1849
rfemur 13.2046 -5.25924 19.1938
rtibia 15.7619
rfoot -12.0885 22.7232
rtoes 4.35206
lfemur -26.8325 7.17402 -13.8004
ltibia 21.1473
lfoot -2.26119 -7.4821
ltoes -10.5633
34
root -11.4798 18.909 -1.34285 1516.32 -86.187 -78.8225
lowerback -3.69335 4.79235 5.55664
upperback 8.0508 5.94342 -1.60832
thorax 11.5195 3.3655 -4.00917
lowerneck -2.77444 -5.43998 4.37514
upperneck 0.649227 -7.39957 -0.550325
head 0.472974 -3.69481 -0.965868
rclavicle -3.20043e-014 -1.59028e-015
rhumerus -8.19275 6.5541 -89.7283
rradius 54.2971
rwrist -15.8304
rhand -10.0939 6.21228
rfingers 7.12502
rthumb 15.8933 -23.1555
lclavicle -3.20043e-014 -1.59028e-015
lhumerus -37.3664 3.51083 86.0119
lradius 18.0395
lwrist -34.1019
lhand -10.8266 -5.24825
lfingers 7.12502
lthumb 15.1875 24.1744
rfemur 14.0166 -5.08064 19.1455
rtibia 15.2779
rfoot -11.8003 22.7842
rtoes 4.65037
lfemur -26.9624 7.26842 -13.7786
ltibia 20.7195
lfoot -2.61082 -7.46891
ltoes -12.3083
35
root -11.6397 18.8865 -1.31913 1517.43 -86.2028 -79.9837
lowerback -3.75378 4.83273 5.43146
upperback 8.06256 6.00992 -1.64705
thorax 11.5669 3.38957 -3.96624
lowerneck -2.79775 -5.49722 4.28028
upperneck 0.625086 -7.47476 -0.483523
head 0.473318 -3.73251 -0.930383
rclavicle -2.94201e-014 7.15625e-015
rhumerus -7.88216 6.80879 -89.6233
rradius 55.6566
rwrist -16.1711
rhand -9.86481 6.1915
rfingers 7.12502
rthumb 16.1138 -23.1586
lclavicle -2.94201e-014 7.15625e-015
lhumerus -37.1626 3.99572 85.7502
lradius 17.8135
lwrist -34.278
lhand -11.0154 -5.36595
lfingers 7.12502
lthumb 15.0056 24.0703
rfemur 14.8129 -4.90769 19.0399
rtibia 14.8334
rfoot -11.5745 22.7883
rtoes 4.67904
lfemur -27.081 7.43856 -13.877
ltibia 20.4392
lfoot -2.97723 -7.51384
ltoes -14.6263
